<?xml version="1.0" standalone="no"?>
 <!DOCTYPE svg PUBLIC "-//W3C//DTD SVG 1.1//EN" 
 "http://www.w3.org/Graphics/SVG/1.1/DTD/svg11.dtd"> 
<svg xmlns="http://www.w3.org/2000/svg" version="1.1" 
    width="20cm" height="10.16cm" viewBox="0 0 78740 40000 ">
<title>SVG Picture created as projectSchematic.sch.svg date 2017/10/21 16:50:54 </title>
  <desc>Picture generated by Eeschema-SVG </desc>
<g style="fill:#000000; fill-opacity:1;stroke:#000000; stroke-opacity:1;
stroke-linecap:round; stroke-linejoin:round; "
 transform="translate(0 0) scale(1 1)">
</g>
<g style="fill:#000000; fill-opacity:0.0; 
stroke:#000000; stroke-width:0; stroke-opacity:1; 
stroke-linecap:round; stroke-linejoin:round;">
</g>
<g style="fill:#840000; fill-opacity:0.0; 
stroke:#840000; stroke-width:0; stroke-opacity:1; 
stroke-linecap:round; stroke-linejoin:round;">
</g>
<g style="fill:#840000; fill-opacity:0.0; 
stroke:#840000; stroke-width:60; stroke-opacity:1; 
stroke-linecap:round; stroke-linejoin:round;">
<polyline fill="none;"
points="50000,20500
49500,21500
" /> 
<polyline fill="none;"
points="50000,15500
49500,16500
" /> 
<polyline fill="none;"
points="53500,23500
52500,24000
" /> 
<polyline fill="none;"
points="53500,13000
52500,13500
" /> 
<polyline fill="none;"
points="58000,18000
57500,19000
" /> 
<polyline fill="none;"
points="51000,14500
53000,14500
56500,17500
56500,19500
53000,22500
51000,22500
51000,19500
52000,18500
51000,17500
51000,14500
" /> 
<path d="M53000 14500
L53000 12500
" />
</g>
<g style="fill:#008484; fill-opacity:0.0; 
stroke:#008484; stroke-width:60; stroke-opacity:1; 
stroke-linecap:round; stroke-linejoin:round;">
<path d="M53230 17440
L53200 17490
L53180 17510
L53130 17530
L52990 17530
L52940 17510
L52920 17490
L52890 17440
L52890 17370
L52920 17320
L52940 17300
L52990 17270
L53130 17270
L53180 17300
L53200 17320
L53230 17370
L53230 17440
" />
<path d="M52890 17060
L53390 17060
" />
<path d="M52920 17060
L52890 17010
L52890 16920
L52920 16870
L52940 16850
L52990 16820
L53130 16820
L53180 16850
L53200 16870
L53230 16920
L53230 17010
L53200 17060
" />
<path d="M53180 16330
L53200 16350
L53230 16420
L53230 16470
L53200 16540
L53150 16590
L53110 16610
L53010 16630
L52940 16630
L52850 16610
L52800 16590
L52750 16540
L52730 16470
L52730 16420
L52750 16350
L52770 16330
" />
<path d="M53230 16040
L53200 16090
L53180 16110
L53130 16130
L52990 16130
L52940 16110
L52920 16090
L52890 16040
L52890 15970
L52920 15920
L52940 15900
L52990 15870
L53130 15870
L53180 15900
L53200 15920
L53230 15970
L53230 16040
" />
<path d="M53230 15450
L52730 15450
" />
<path d="M53200 15450
L53230 15490
L53230 15590
L53200 15640
L53180 15660
L53130 15680
L52990 15680
L52940 15660
L52920 15640
L52890 15590
L52890 15490
L52920 15450
" />
<path d="M53200 15020
L53230 15070
L53230 15160
L53200 15210
L53150 15230
L52960 15230
L52920 15210
L52890 15160
L52890 15070
L52920 15020
L52960 15000
L53010 15000
L53060 15230
" />
</g>
<g style="fill:#840000; fill-opacity:0.0; 
stroke:#840000; stroke-width:60; stroke-opacity:1; 
stroke-linecap:round; stroke-linejoin:round;">
<path d="M52540 13410
L52880 13410
" />
<path d="M52350 13530
L52710 13640
L52710 13340
" />
<path d="M53000 22500
L53000 24500
" />
</g>
<g style="fill:#008484; fill-opacity:0.0; 
stroke:#008484; stroke-width:60; stroke-opacity:1; 
stroke-linecap:round; stroke-linejoin:round;">
<path d="M53200 22000
L53230 21960
L53230 21860
L53200 21810
L53150 21790
L53130 21790
L53080 21810
L53060 21860
L53060 21930
L53040 21980
L52990 22000
L52960 22000
L52920 21980
L52890 21930
L52890 21860
L52920 21810
" />
<path d="M53230 21580
L52730 21580
" />
<path d="M53230 21370
L52960 21370
L52920 21390
L52890 21440
L52890 21510
L52920 21560
L52940 21580
" />
<path d="M53230 21130
L52890 21130
" />
<path d="M52730 21130
L52750 21150
L52770 21130
L52750 21110
L52730 21130
L52770 21130
" />
<path d="M52890 20960
L52890 20770
" />
<path d="M53230 20890
L52800 20890
L52750 20870
L52730 20820
L52730 20770
" />
<path d="M52890 20670
L52890 20480
" />
<path d="M52730 20600
L53150 20600
L53200 20580
L53230 20530
L53230 20480
" />
<path d="M53080 20330
L53080 20100
" />
<path d="M53230 20380
L52730 20220
L53230 20050
" />
<path d="M53230 19880
L52890 19880
" />
<path d="M52940 19880
L52920 19860
L52890 19810
L52890 19740
L52920 19690
L52960 19670
L53230 19670
" />
<path d="M52960 19670
L52920 19640
L52890 19600
L52890 19520
L52920 19480
L52960 19450
L53230 19450
" />
<path d="M52890 19280
L52890 19090
" />
<path d="M52730 19210
L53150 19210
L53200 19190
L53230 19140
L53230 19090
" />
</g>
<g style="fill:#840000; fill-opacity:0.0; 
stroke:#840000; stroke-width:60; stroke-opacity:1; 
stroke-linecap:round; stroke-linejoin:round;">
<path d="M52380 23380
L52380 23620
L52610 23640
L52590 23620
L52570 23570
L52570 23450
L52590 23410
L52610 23380
L52660 23360
L52780 23360
L52830 23380
L52850 23410
L52880 23450
L52880 23570
L52850 23620
L52830 23640
" />
<path d="M51000 16000
L49000 16000
" />
</g>
<g style="fill:#008484; fill-opacity:0.0; 
stroke:#008484; stroke-width:60; stroke-opacity:1; 
stroke-linecap:round; stroke-linejoin:round;">
<path d="M51520 16230
L51520 15890
" />
<path d="M51520 15730
L51500 15750
L51520 15770
L51540 15750
L51520 15730
L51520 15770
" />
<path d="M51760 15890
L51760 16230
" />
<path d="M51760 15940
L51780 15920
L51830 15890
L51900 15890
L51950 15920
L51970 15960
L51970 16230
" />
<path d="M52470 16230
L52190 16230
" />
<path d="M52330 16230
L52330 15730
L52280 15800
L52230 15850
L52190 15870
" />
</g>
<g style="fill:#840000; fill-opacity:0.0; 
stroke:#840000; stroke-width:60; stroke-opacity:1; 
stroke-linecap:round; stroke-linejoin:round;">
<path d="M49590 15380
L49900 15380
L49730 15570
L49810 15570
L49850 15590
L49880 15610
L49900 15660
L49900 15780
L49880 15830
L49850 15850
L49810 15880
L49660 15880
L49620 15850
L49590 15830
" />
<path d="M50100 15420
L50120 15400
L50170 15380
L50290 15380
L50330 15400
L50360 15420
L50380 15470
L50380 15520
L50360 15590
L50070 15880
L50380 15880
" />
<path d="M51000 21000
L49000 21000
" />
</g>
<g style="fill:#008484; fill-opacity:0.0; 
stroke:#008484; stroke-width:60; stroke-opacity:1; 
stroke-linecap:round; stroke-linejoin:round;">
<path d="M51520 21230
L51520 20890
" />
<path d="M51520 20730
L51500 20750
L51520 20770
L51540 20750
L51520 20730
L51520 20770
" />
<path d="M51760 20890
L51760 21230
" />
<path d="M51760 20940
L51780 20920
L51830 20890
L51900 20890
L51950 20920
L51970 20960
L51970 21230
" />
<path d="M52190 20770
L52210 20750
L52260 20730
L52380 20730
L52420 20750
L52450 20770
L52470 20820
L52470 20870
L52450 20940
L52160 21230
L52470 21230
" />
</g>
<g style="fill:#840000; fill-opacity:0.0; 
stroke:#840000; stroke-width:60; stroke-opacity:1; 
stroke-linecap:round; stroke-linejoin:round;">
<path d="M49590 20380
L49900 20380
L49730 20570
L49810 20570
L49850 20590
L49880 20610
L49900 20660
L49900 20780
L49880 20830
L49850 20850
L49810 20880
L49660 20880
L49620 20850
L49590 20830
" />
<path d="M50100 20420
L50120 20400
L50170 20380
L50290 20380
L50330 20400
L50360 20420
L50380 20470
L50380 20520
L50360 20590
L50070 20880
L50380 20880
" />
<path d="M56500 18500
L58500 18500
" />
</g>
<g style="fill:#008484; fill-opacity:0.0; 
stroke:#008484; stroke-width:60; stroke-opacity:1; 
stroke-linecap:round; stroke-linejoin:round;">
<path d="M54080 18730
L54080 18390
" />
<path d="M54080 18490
L54100 18440
L54130 18420
L54170 18390
L54220 18390
" />
<path d="M54580 18700
L54530 18730
L54440 18730
L54390 18700
L54370 18650
L54370 18460
L54390 18420
L54440 18390
L54530 18390
L54580 18420
L54600 18460
L54600 18510
L54370 18560
" />
<path d="M54800 18700
L54840 18730
L54940 18730
L54990 18700
L55010 18650
L55010 18630
L54990 18580
L54940 18560
L54870 18560
L54820 18540
L54800 18490
L54800 18460
L54820 18420
L54870 18390
L54940 18390
L54990 18420
" />
<path d="M55430 18390
L55430 18730
" />
<path d="M55220 18390
L55220 18650
L55240 18700
L55290 18730
L55360 18730
L55410 18700
L55430 18680
" />
<path d="M55740 18730
L55690 18700
L55670 18650
L55670 18230
" />
<path d="M55860 18390
L56050 18390
" />
<path d="M55930 18230
L55930 18650
L55950 18700
L56000 18730
L56050 18730
" />
</g>
<g style="fill:#840000; fill-opacity:0.0; 
stroke:#840000; stroke-width:60; stroke-opacity:1; 
stroke-linecap:round; stroke-linejoin:round;">
<path d="M57090 17880
L57400 17880
L57230 18070
L57310 18070
L57350 18090
L57380 18110
L57400 18160
L57400 18280
L57380 18330
L57350 18350
L57310 18380
L57160 18380
L57120 18350
L57090 18330
" />
<path d="M57600 17920
L57620 17900
L57670 17880
L57790 17880
L57830 17900
L57860 17920
L57880 17970
L57880 18020
L57860 18090
L57570 18380
L57880 18380
" />
</g>
<g style="fill:#008484; fill-opacity:0.0; 
stroke:#008484; stroke-width:60; stroke-opacity:1; 
stroke-linecap:round; stroke-linejoin:round;">
<path d="M55500 21210
L55870 21210
L55670 21440
L55750 21440
L55810 21470
L55840 21500
L55870 21550
L55870 21700
L55840 21750
L55810 21780
L55750 21810
L55580 21810
L55520 21780
L55500 21750
" />
<path d="M56090 21270
L56120 21240
L56180 21210
L56320 21210
L56380 21240
L56410 21270
L56440 21330
L56440 21380
L56410 21470
L56070 21810
L56440 21810
" />
<path d="M56690 21580
L57150 21580
" />
<path d="M57430 21810
L57430 21210
" />
<path d="M57430 21440
L57490 21410
L57600 21410
L57660 21440
L57690 21470
L57720 21530
L57720 21700
L57690 21750
L57660 21780
L57600 21810
L57490 21810
L57430 21780
" />
<path d="M57970 21810
L57970 21410
" />
<path d="M57970 21210
L57940 21240
L57970 21270
L58000 21240
L57970 21210
L57970 21270
" />
<path d="M58180 21410
L58410 21410
" />
<path d="M58260 21210
L58260 21730
L58290 21780
L58350 21810
L58410 21810
" />
<path d="M58600 21580
L59060 21580
" />
<path d="M59600 21810
L59600 21500
L59570 21440
L59510 21410
L59400 21410
L59340 21440
" />
<path d="M59600 21780
L59540 21810
L59400 21810
L59340 21780
L59310 21730
L59310 21670
L59340 21610
L59400 21580
L59540 21580
L59600 21550
" />
<path d="M59970 21810
L59910 21780
L59880 21730
L59880 21210
" />
<path d="M60450 21410
L60450 21810
" />
<path d="M60190 21410
L60190 21730
L60220 21780
L60280 21810
L60360 21810
L60420 21780
L60450 21750
" />
</g>
<g style="fill:#008484; fill-opacity:0.0; 
stroke:#008484; stroke-width:0; stroke-opacity:1; 
stroke-linecap:round; stroke-linejoin:round;">
</g>
<g style="fill:#840000; fill-opacity:0.0; 
stroke:#840000; stroke-width:0; stroke-opacity:1; 
stroke-linecap:round; stroke-linejoin:round;">
</g>
<g style="fill:#840000; fill-opacity:0.0; 
stroke:#840000; stroke-width:60; stroke-opacity:1; 
stroke-linecap:round; stroke-linejoin:round;">
<line x1="25000" y1="23000" x2="25000" y2="23000" />
<rect x="25000" y="14000" width="9000" height="9000" rx="0" />
<line x1="34000" y1="14000" x2="34000" y2="14000" />
<line x1="34000" y1="14000" x2="34000" y2="14000" />
<line x1="34000" y1="14000" x2="34000" y2="14000" />
<polyline fill="none;"
points="23500,16000
23500,16000
" /> 
<polyline fill="none;"
points="24000,21000
23500,22000
" /> 
<polyline fill="none;"
points="24000,19500
23500,20500
" /> 
<polyline fill="none;"
points="24000,16500
23500,17500
" /> 
<polyline fill="none;"
points="24000,15000
23500,16000
" /> 
<polyline fill="none;"
points="35500,19500
35000,20500
" /> 
<polyline fill="none;"
points="35500,16500
35000,17500
" /> 
<path d="M25000 15500
L23000 15500
" />
</g>
<g style="fill:#008484; fill-opacity:0.0; 
stroke:#008484; stroke-width:60; stroke-opacity:1; 
stroke-linecap:round; stroke-linejoin:round;">
<path d="M25520 15730
L25520 15390
" />
<path d="M25520 15490
L25540 15440
L25570 15420
L25610 15390
L25660 15390
" />
<path d="M26040 15730
L26040 15230
" />
<path d="M26040 15700
L26000 15730
L25900 15730
L25850 15700
L25830 15680
L25810 15630
L25810 15490
L25830 15440
L25850 15420
L25900 15390
L26000 15390
L26040 15420
" />
<path d="M26560 15730
L26400 15490
" />
<path d="M26280 15730
L26280 15230
L26470 15230
L26520 15250
L26540 15270
L26560 15320
L26560 15390
L26540 15440
L26520 15460
L26470 15490
L26280 15490
" />
<path d="M26970 15700
L26920 15730
L26830 15730
L26780 15700
L26760 15650
L26760 15460
L26780 15420
L26830 15390
L26920 15390
L26970 15420
L26990 15460
L26990 15510
L26760 15560
" />
<path d="M27420 15390
L27420 15800
L27400 15850
L27380 15870
L27330 15890
L27260 15890
L27210 15870
" />
<path d="M27420 15700
L27380 15730
L27280 15730
L27230 15700
L27210 15680
L27190 15630
L27190 15490
L27210 15440
L27230 15420
L27280 15390
L27380 15390
L27420 15420
" />
<path d="M27920 15730
L27640 15730
" />
<path d="M27780 15730
L27780 15230
L27730 15300
L27680 15350
L27640 15370
" />
</g>
<g style="fill:#840000; fill-opacity:0.0; 
stroke:#840000; stroke-width:60; stroke-opacity:1; 
stroke-linecap:round; stroke-linejoin:round;">
<path d="M24120 14880
L23880 14880
L23860 15110
L23880 15090
L23930 15070
L24050 15070
L24090 15090
L24120 15110
L24140 15160
L24140 15280
L24120 15330
L24090 15350
L24050 15380
L23930 15380
L23880 15350
L23860 15330
" />
<path d="M25000 17000
L23000 17000
" />
</g>
<g style="fill:#008484; fill-opacity:0.0; 
stroke:#008484; stroke-width:60; stroke-opacity:1; 
stroke-linecap:round; stroke-linejoin:round;">
<path d="M25520 17230
L25520 16890
" />
<path d="M25520 16990
L25540 16940
L25570 16920
L25610 16890
L25660 16890
" />
<path d="M26040 17230
L26040 16730
" />
<path d="M26040 17200
L26000 17230
L25900 17230
L25850 17200
L25830 17180
L25810 17130
L25810 16990
L25830 16940
L25850 16920
L25900 16890
L26000 16890
L26040 16920
" />
<path d="M26560 17230
L26400 16990
" />
<path d="M26280 17230
L26280 16730
L26470 16730
L26520 16750
L26540 16770
L26560 16820
L26560 16890
L26540 16940
L26520 16960
L26470 16990
L26280 16990
" />
<path d="M26970 17200
L26920 17230
L26830 17230
L26780 17200
L26760 17150
L26760 16960
L26780 16920
L26830 16890
L26920 16890
L26970 16920
L26990 16960
L26990 17010
L26760 17060
" />
<path d="M27420 16890
L27420 17300
L27400 17350
L27380 17370
L27330 17390
L27260 17390
L27210 17370
" />
<path d="M27420 17200
L27380 17230
L27280 17230
L27230 17200
L27210 17180
L27190 17130
L27190 16990
L27210 16940
L27230 16920
L27280 16890
L27380 16890
L27420 16920
" />
<path d="M27640 16770
L27660 16750
L27710 16730
L27830 16730
L27870 16750
L27900 16770
L27920 16820
L27920 16870
L27900 16940
L27610 17230
L27920 17230
" />
</g>
<g style="fill:#840000; fill-opacity:0.0; 
stroke:#840000; stroke-width:60; stroke-opacity:1; 
stroke-linecap:round; stroke-linejoin:round;">
<path d="M24120 16380
L23880 16380
L23860 16610
L23880 16590
L23930 16570
L24050 16570
L24090 16590
L24120 16610
L24140 16660
L24140 16780
L24120 16830
L24090 16850
L24050 16880
L23930 16880
L23880 16850
L23860 16830
" />
<path d="M25000 20000
L23000 20000
" />
</g>
<g style="fill:#008484; fill-opacity:0.0; 
stroke:#008484; stroke-width:60; stroke-opacity:1; 
stroke-linecap:round; stroke-linejoin:round;">
<path d="M25470 19890
L25570 20230
L25660 19990
L25760 20230
L25850 19890
" />
<path d="M26040 20230
L26040 19890
" />
<path d="M26040 19990
L26060 19940
L26090 19920
L26130 19890
L26180 19890
" />
<path d="M26630 20230
L26470 19990
" />
<path d="M26350 20230
L26350 19730
L26540 19730
L26590 19750
L26610 19770
L26630 19820
L26630 19890
L26610 19940
L26590 19960
L26540 19990
L26350 19990
" />
<path d="M27040 20200
L26990 20230
L26900 20230
L26850 20200
L26830 20150
L26830 19960
L26850 19920
L26900 19890
L26990 19890
L27040 19920
L27060 19960
L27060 20010
L26830 20060
" />
<path d="M27490 19890
L27490 20300
L27470 20350
L27450 20370
L27400 20390
L27330 20390
L27280 20370
" />
<path d="M27490 20200
L27450 20230
L27350 20230
L27300 20200
L27280 20180
L27260 20130
L27260 19990
L27280 19940
L27300 19920
L27350 19890
L27450 19890
L27490 19920
" />
</g>
<g style="fill:#840000; fill-opacity:0.0; 
stroke:#840000; stroke-width:60; stroke-opacity:1; 
stroke-linecap:round; stroke-linejoin:round;">
<path d="M24120 19380
L23880 19380
L23860 19610
L23880 19590
L23930 19570
L24050 19570
L24090 19590
L24120 19610
L24140 19660
L24140 19780
L24120 19830
L24090 19850
L24050 19880
L23930 19880
L23880 19850
L23860 19830
" />
<path d="M29500 14000
L29500 12000
" />
<path d="M29750 14000
L29500 14500
L29250 14000
" />
</g>
<g style="fill:#008484; fill-opacity:0.0; 
stroke:#008484; stroke-width:60; stroke-opacity:1; 
stroke-linecap:round; stroke-linejoin:round;">
<path d="M29700 15160
L29730 15200
L29730 15300
L29700 15350
L29680 15370
L29630 15390
L29490 15390
L29440 15370
L29420 15350
L29390 15300
L29390 15200
L29420 15160
" />
<path d="M29730 14870
L29700 14920
L29650 14940
L29230 14940
" />
<path d="M29730 14680
L29230 14680
" />
<path d="M29540 14630
L29730 14490
" />
<path d="M29390 14490
L29580 14680
" />
</g>
<g style="fill:#840000; fill-opacity:0.0; 
stroke:#840000; stroke-width:60; stroke-opacity:1; 
stroke-linecap:round; stroke-linejoin:round;">
<path d="M29500 23000
L29500 25000
" />
</g>
<g style="fill:#008484; fill-opacity:0.0; 
stroke:#008484; stroke-width:60; stroke-opacity:1; 
stroke-linecap:round; stroke-linejoin:round;">
<path d="M29390 22530
L29730 22430
L29490 22340
L29730 22240
L29390 22150
" />
<path d="M29730 21960
L29390 21960
" />
<path d="M29490 21960
L29440 21940
L29420 21910
L29390 21870
L29390 21820
" />
<path d="M29460 21650
L29460 21480
" />
<path d="M29730 21410
L29730 21650
L29230 21650
L29230 21410
" />
<path d="M29390 21200
L29730 21200
" />
<path d="M29440 21200
L29420 21180
L29390 21130
L29390 21060
L29420 21010
L29460 20990
L29730 20990
" />
<path d="M29730 20540
L29460 20540
L29420 20560
L29390 20610
L29390 20700
L29420 20750
" />
<path d="M29700 20540
L29730 20580
L29730 20700
L29700 20750
L29650 20770
L29610 20770
L29560 20750
L29540 20700
L29540 20580
L29510 20540
" />
<path d="M29730 20300
L29230 20300
" />
<path d="M29420 20300
L29390 20250
L29390 20160
L29420 20110
L29440 20090
L29490 20060
L29630 20060
L29680 20090
L29700 20110
L29730 20160
L29730 20250
L29700 20300
" />
<path d="M29730 19780
L29700 19830
L29650 19850
L29230 19850
" />
<path d="M29700 19400
L29730 19450
L29730 19540
L29700 19590
L29650 19610
L29460 19610
L29420 19590
L29390 19540
L29390 19450
L29420 19400
L29460 19380
L29510 19380
L29560 19610
" />
</g>
<g style="fill:#840000; fill-opacity:0.0; 
stroke:#840000; stroke-width:60; stroke-opacity:1; 
stroke-linecap:round; stroke-linejoin:round;">
<path d="M34000 17000
L36000 17000
" />
</g>
<g style="fill:#008484; fill-opacity:0.0; 
stroke:#008484; stroke-width:60; stroke-opacity:1; 
stroke-linecap:round; stroke-linejoin:round;">
<path d="M30790 17230
L30790 16890
" />
<path d="M30790 16990
L30810 16940
L30840 16920
L30880 16890
L30930 16890
" />
<path d="M31310 17230
L31310 16730
" />
<path d="M31310 17200
L31270 17230
L31170 17230
L31120 17200
L31100 17180
L31080 17130
L31080 16990
L31100 16940
L31120 16920
L31170 16890
L31270 16890
L31310 16920
" />
<path d="M31550 17230
L31550 16730
L31670 16730
L31740 16750
L31790 16800
L31810 16850
L31830 16940
L31830 17010
L31810 17110
L31790 17150
L31740 17200
L31670 17230
L31550 17230
" />
<path d="M32260 17230
L32260 16960
L32240 16920
L32190 16890
L32100 16890
L32050 16920
" />
<path d="M32260 17200
L32220 17230
L32100 17230
L32050 17200
L32030 17150
L32030 17110
L32050 17060
L32100 17040
L32220 17040
L32260 17010
" />
<path d="M32430 16890
L32620 16890
" />
<path d="M32500 16730
L32500 17150
L32520 17200
L32570 17230
L32620 17230
" />
<path d="M33000 17230
L33000 16960
L32980 16920
L32930 16890
L32840 16890
L32790 16920
" />
<path d="M33000 17200
L32960 17230
L32840 17230
L32790 17200
L32770 17150
L32770 17110
L32790 17060
L32840 17040
L32960 17040
L33000 17010
" />
<path d="M33500 17230
L33220 17230
" />
<path d="M33360 17230
L33360 16730
L33310 16800
L33260 16850
L33220 16870
" />
</g>
<g style="fill:#840000; fill-opacity:0.0; 
stroke:#840000; stroke-width:60; stroke-opacity:1; 
stroke-linecap:round; stroke-linejoin:round;">
<path d="M34590 16380
L34900 16380
L34730 16570
L34810 16570
L34850 16590
L34880 16610
L34900 16660
L34900 16780
L34880 16830
L34850 16850
L34810 16880
L34660 16880
L34620 16850
L34590 16830
" />
<path d="M35100 16420
L35120 16400
L35170 16380
L35290 16380
L35330 16400
L35360 16420
L35380 16470
L35380 16520
L35360 16590
L35070 16880
L35380 16880
" />
<path d="M34000 20000
L36000 20000
" />
</g>
<g style="fill:#008484; fill-opacity:0.0; 
stroke:#008484; stroke-width:60; stroke-opacity:1; 
stroke-linecap:round; stroke-linejoin:round;">
<path d="M30790 20230
L30790 19890
" />
<path d="M30790 19990
L30810 19940
L30840 19920
L30880 19890
L30930 19890
" />
<path d="M31310 20230
L31310 19730
" />
<path d="M31310 20200
L31270 20230
L31170 20230
L31120 20200
L31100 20180
L31080 20130
L31080 19990
L31100 19940
L31120 19920
L31170 19890
L31270 19890
L31310 19920
" />
<path d="M31550 20230
L31550 19730
L31670 19730
L31740 19750
L31790 19800
L31810 19850
L31830 19940
L31830 20010
L31810 20110
L31790 20150
L31740 20200
L31670 20230
L31550 20230
" />
<path d="M32260 20230
L32260 19960
L32240 19920
L32190 19890
L32100 19890
L32050 19920
" />
<path d="M32260 20200
L32220 20230
L32100 20230
L32050 20200
L32030 20150
L32030 20110
L32050 20060
L32100 20040
L32220 20040
L32260 20010
" />
<path d="M32430 19890
L32620 19890
" />
<path d="M32500 19730
L32500 20150
L32520 20200
L32570 20230
L32620 20230
" />
<path d="M33000 20230
L33000 19960
L32980 19920
L32930 19890
L32840 19890
L32790 19920
" />
<path d="M33000 20200
L32960 20230
L32840 20230
L32790 20200
L32770 20150
L32770 20110
L32790 20060
L32840 20040
L32960 20040
L33000 20010
" />
<path d="M33220 19770
L33240 19750
L33290 19730
L33410 19730
L33450 19750
L33480 19770
L33500 19820
L33500 19870
L33480 19940
L33190 20230
L33500 20230
" />
</g>
<g style="fill:#840000; fill-opacity:0.0; 
stroke:#840000; stroke-width:60; stroke-opacity:1; 
stroke-linecap:round; stroke-linejoin:round;">
<path d="M34590 19380
L34900 19380
L34730 19570
L34810 19570
L34850 19590
L34880 19610
L34900 19660
L34900 19780
L34880 19830
L34850 19850
L34810 19880
L34660 19880
L34620 19850
L34590 19830
" />
<path d="M35100 19420
L35120 19400
L35170 19380
L35290 19380
L35330 19400
L35360 19420
L35380 19470
L35380 19520
L35360 19590
L35070 19880
L35380 19880
" />
<path d="M25000 21500
L23000 21500
" />
</g>
<g style="fill:#008484; fill-opacity:0.0; 
stroke:#008484; stroke-width:60; stroke-opacity:1; 
stroke-linecap:round; stroke-linejoin:round;">
<path d="M25470 21390
L25570 21730
L25660 21490
L25760 21730
L25850 21390
" />
<path d="M26040 21730
L26040 21390
" />
<path d="M26040 21490
L26060 21440
L26090 21420
L26130 21390
L26180 21390
" />
<path d="M26350 21730
L26350 21230
L26470 21230
L26540 21250
L26590 21300
L26610 21350
L26630 21440
L26630 21510
L26610 21610
L26590 21650
L26540 21700
L26470 21730
L26350 21730
" />
<path d="M27060 21730
L27060 21460
L27040 21420
L26990 21390
L26900 21390
L26850 21420
" />
<path d="M27060 21700
L27020 21730
L26900 21730
L26850 21700
L26830 21650
L26830 21610
L26850 21560
L26900 21540
L27020 21540
L27060 21510
" />
<path d="M27230 21390
L27420 21390
" />
<path d="M27300 21230
L27300 21650
L27320 21700
L27370 21730
L27420 21730
" />
<path d="M27800 21730
L27800 21460
L27780 21420
L27730 21390
L27640 21390
L27590 21420
" />
<path d="M27800 21700
L27760 21730
L27640 21730
L27590 21700
L27570 21650
L27570 21610
L27590 21560
L27640 21540
L27760 21540
L27800 21510
" />
</g>
<g style="fill:#840000; fill-opacity:0.0; 
stroke:#840000; stroke-width:60; stroke-opacity:1; 
stroke-linecap:round; stroke-linejoin:round;">
<path d="M23590 20880
L23900 20880
L23730 21070
L23810 21070
L23850 21090
L23880 21110
L23900 21160
L23900 21280
L23880 21330
L23850 21350
L23810 21380
L23660 21380
L23620 21350
L23590 21330
" />
<path d="M24100 20920
L24120 20900
L24170 20880
L24290 20880
L24330 20900
L24360 20920
L24380 20970
L24380 21020
L24360 21090
L24070 21380
L24380 21380
" />
</g>
<g style="fill:#008484; fill-opacity:0.0; 
stroke:#008484; stroke-width:60; stroke-opacity:1; 
stroke-linecap:round; stroke-linejoin:round;">
<path d="M30840 24310
L30840 23910
" />
<path d="M30840 24030
L30870 23970
L30900 23940
L30960 23910
L31010 23910
" />
<path d="M31440 24280
L31380 24310
L31270 24310
L31210 24280
L31180 24230
L31180 24000
L31210 23940
L31270 23910
L31380 23910
L31440 23940
L31470 24000
L31470 24050
L31180 24110
" />
<path d="M31980 23910
L31980 24400
L31950 24450
L31920 24480
L31870 24510
L31780 24510
L31720 24480
" />
<path d="M31980 24280
L31920 24310
L31810 24310
L31750 24280
L31720 24250
L31690 24200
L31690 24030
L31720 23970
L31750 23940
L31810 23910
L31920 23910
L31980 23940
" />
<path d="M32260 24310
L32260 23910
" />
<path d="M32260 23710
L32230 23740
L32260 23770
L32290 23740
L32260 23710
L32260 23770
" />
<path d="M32520 24280
L32580 24310
L32700 24310
L32750 24280
L32780 24230
L32780 24200
L32750 24140
L32700 24110
L32610 24110
L32550 24080
L32520 24030
L32520 24000
L32550 23940
L32610 23910
L32700 23910
L32750 23940
" />
<path d="M32960 23910
L33190 23910
" />
<path d="M33040 23710
L33040 24230
L33070 24280
L33130 24310
L33190 24310
" />
<path d="M33610 24280
L33550 24310
L33440 24310
L33380 24280
L33350 24230
L33350 24000
L33380 23940
L33440 23910
L33550 23910
L33610 23940
L33640 24000
L33640 24050
L33350 24110
" />
<path d="M33890 24310
L33890 23910
" />
<path d="M33890 24030
L33920 23970
L33950 23940
L34010 23910
L34060 23910
" />
<path d="M34260 24080
L34720 24080
" />
<path d="M34920 23910
L35150 23910
" />
<path d="M35000 24310
L35000 23800
L35030 23740
L35090 23710
L35150 23710
" />
<path d="M35340 24310
L35340 23910
" />
<path d="M35340 23710
L35310 23740
L35340 23770
L35370 23740
L35340 23710
L35340 23770
" />
<path d="M35720 24310
L35660 24280
L35630 24230
L35630 23710
" />
<path d="M36170 24280
L36110 24310
L36000 24310
L35940 24280
L35910 24230
L35910 24000
L35940 23940
L36000 23910
L36110 23910
L36170 23940
L36200 24000
L36200 24050
L35910 24110
" />
</g>
<g style="fill:#008484; fill-opacity:0.0; 
stroke:#008484; stroke-width:0; stroke-opacity:1; 
stroke-linecap:round; stroke-linejoin:round;">
</g>
<g style="fill:#840000; fill-opacity:0.0; 
stroke:#840000; stroke-width:0; stroke-opacity:1; 
stroke-linecap:round; stroke-linejoin:round;">
</g>
<g style="fill:#840000; fill-opacity:0.0; 
stroke:#840000; stroke-width:60; stroke-opacity:1; 
stroke-linecap:round; stroke-linejoin:round;">
<path d="M16000 29000 A1990 1990 0.0 0 0 18000.4 30990 " />
<path d="M18000 27000 A1990 1990 0.0 0 0 16010 29000.4 " />
<path d="M23000 31000 A1990 1990 0.0 0 0 24990 28999.6 " />
<path d="M24990 28993.5 A1990 1990 0.0 0 0 23006.9 27000 " />
<polyline fill="none;"
points="18000,31000
23000,31000
" /> 
<polyline fill="none;"
points="19500,32000
18500,32500
" /> 
<polyline fill="none;"
points="21000,25500
20000,26000
" /> 
<polyline fill="none;"
points="22500,32000
21500,32500
" /> 
<polyline fill="none;"
points="23000,27000
18000,27000
" /> 
<path d="M16000 29000
L14000 29000
" />
</g>
<g style="fill:#008484; fill-opacity:0.0; 
stroke:#008484; stroke-width:60; stroke-opacity:1; 
stroke-linecap:round; stroke-linejoin:round;">
<path d="M16500 29200
L16540 29230
L16640 29230
L16690 29200
L16710 29150
L16710 29130
L16690 29080
L16640 29060
L16570 29060
L16520 29040
L16500 28990
L16500 28960
L16520 28920
L16570 28890
L16640 28890
L16690 28920
" />
<path d="M17110 29200
L17060 29230
L16970 29230
L16920 29200
L16900 29150
L16900 28960
L16920 28920
L16970 28890
L17060 28890
L17110 28920
L17130 28960
L17130 29010
L16900 29060
" />
<path d="M17420 29230
L17370 29200
L17350 29150
L17350 28730
" />
<path d="M17890 29180
L17870 29200
L17800 29230
L17750 29230
L17680 29200
L17630 29150
L17610 29110
L17590 29010
L17590 28940
L17610 28850
L17630 28800
L17680 28750
L17750 28730
L17800 28730
L17870 28750
L17890 28770
" />
<path d="M18110 29230
L18110 28730
" />
<path d="M18320 29230
L18320 28960
L18300 28920
L18250 28890
L18180 28890
L18130 28920
L18110 28940
" />
</g>
<g style="fill:#840000; fill-opacity:0.0; 
stroke:#840000; stroke-width:60; stroke-opacity:1; 
stroke-linecap:round; stroke-linejoin:round;">
<path d="M19000 31000
L19000 33000
" />
</g>
<g style="fill:#008484; fill-opacity:0.0; 
stroke:#008484; stroke-width:60; stroke-opacity:1; 
stroke-linecap:round; stroke-linejoin:round;">
<path d="M19230 30480
L18890 30480
" />
<path d="M18730 30480
L18750 30500
L18770 30480
L18750 30460
L18730 30480
L18770 30480
" />
<path d="M18890 30240
L19230 30240
" />
<path d="M18940 30240
L18920 30220
L18890 30170
L18890 30100
L18920 30050
L18960 30030
L19230 30030
" />
<path d="M19180 29510
L19200 29530
L19230 29600
L19230 29650
L19200 29720
L19150 29770
L19110 29790
L19010 29810
L18940 29810
L18850 29790
L18800 29770
L18750 29720
L18730 29650
L18730 29600
L18750 29530
L18770 29510
" />
<path d="M19230 29290
L18730 29290
" />
<path d="M19230 29080
L18960 29080
L18920 29100
L18890 29150
L18890 29220
L18920 29270
L18940 29290
" />
<path d="M18730 28750
L18730 28700
L18750 28650
L18770 28630
L18820 28600
L18920 28580
L19040 28580
L19130 28600
L19180 28630
L19200 28650
L19230 28700
L19230 28750
L19200 28790
L19180 28820
L19130 28840
L19040 28860
L18920 28860
L18820 28840
L18770 28820
L18750 28790
L18730 28750
" />
</g>
<g style="fill:#840000; fill-opacity:0.0; 
stroke:#840000; stroke-width:60; stroke-opacity:1; 
stroke-linecap:round; stroke-linejoin:round;">
<path d="M18380 32410
L18380 32100
L18570 32270
L18570 32190
L18590 32150
L18610 32120
L18660 32100
L18780 32100
L18830 32120
L18850 32150
L18880 32190
L18880 32340
L18850 32380
L18830 32410
" />
<path d="M18420 31900
L18400 31880
L18380 31830
L18380 31710
L18400 31670
L18420 31640
L18470 31620
L18520 31620
L18590 31640
L18880 31930
L18880 31620
" />
<path d="M22000 31000
L22000 33000
" />
</g>
<g style="fill:#008484; fill-opacity:0.0; 
stroke:#008484; stroke-width:60; stroke-opacity:1; 
stroke-linecap:round; stroke-linejoin:round;">
<path d="M22230 30480
L21890 30480
" />
<path d="M21730 30480
L21750 30500
L21770 30480
L21750 30460
L21730 30480
L21770 30480
" />
<path d="M21890 30240
L22230 30240
" />
<path d="M21940 30240
L21920 30220
L21890 30170
L21890 30100
L21920 30050
L21960 30030
L22230 30030
" />
<path d="M22180 29510
L22200 29530
L22230 29600
L22230 29650
L22200 29720
L22150 29770
L22110 29790
L22010 29810
L21940 29810
L21850 29790
L21800 29770
L21750 29720
L21730 29650
L21730 29600
L21750 29530
L21770 29510
" />
<path d="M22230 29290
L21730 29290
" />
<path d="M22230 29080
L21960 29080
L21920 29100
L21890 29150
L21890 29220
L21920 29270
L21940 29290
" />
<path d="M22230 28580
L22230 28860
" />
<path d="M22230 28720
L21730 28720
L21800 28770
L21850 28820
L21870 28860
" />
</g>
<g style="fill:#840000; fill-opacity:0.0; 
stroke:#840000; stroke-width:60; stroke-opacity:1; 
stroke-linecap:round; stroke-linejoin:round;">
<path d="M21380 32410
L21380 32100
L21570 32270
L21570 32190
L21590 32150
L21610 32120
L21660 32100
L21780 32100
L21830 32120
L21850 32150
L21880 32190
L21880 32340
L21850 32380
L21830 32410
" />
<path d="M21420 31900
L21400 31880
L21380 31830
L21380 31710
L21400 31670
L21420 31640
L21470 31620
L21520 31620
L21590 31640
L21880 31930
L21880 31620
" />
<path d="M20500 27000
L20500 25000
" />
</g>
<g style="fill:#008484; fill-opacity:0.0; 
stroke:#008484; stroke-width:60; stroke-opacity:1; 
stroke-linecap:round; stroke-linejoin:round;">
<path d="M20700 30080
L20730 30040
L20730 29940
L20700 29890
L20650 29870
L20630 29870
L20580 29890
L20560 29940
L20560 30010
L20540 30060
L20490 30080
L20460 30080
L20420 30060
L20390 30010
L20390 29940
L20420 29890
" />
<path d="M20700 29470
L20730 29520
L20730 29610
L20700 29660
L20650 29680
L20460 29680
L20420 29660
L20390 29610
L20390 29520
L20420 29470
L20460 29450
L20510 29450
L20560 29680
" />
<path d="M20730 29160
L20700 29210
L20650 29230
L20230 29230
" />
<path d="M20730 28970
L20230 28970
L20230 28850
L20250 28780
L20300 28730
L20350 28710
L20440 28690
L20510 28690
L20610 28710
L20650 28730
L20700 28780
L20730 28850
L20730 28970
" />
<path d="M20730 28260
L20460 28260
L20420 28280
L20390 28330
L20390 28420
L20420 28470
" />
<path d="M20700 28260
L20730 28300
L20730 28420
L20700 28470
L20650 28490
L20610 28490
L20560 28470
L20540 28420
L20540 28300
L20510 28260
" />
<path d="M20390 28090
L20390 27900
" />
<path d="M20230 28020
L20650 28020
L20700 28000
L20730 27950
L20730 27900
" />
<path d="M20730 27520
L20460 27520
L20420 27540
L20390 27590
L20390 27680
L20420 27730
" />
<path d="M20700 27520
L20730 27560
L20730 27680
L20700 27730
L20650 27750
L20610 27750
L20560 27730
L20540 27680
L20540 27560
L20510 27520
" />
</g>
<g style="fill:#840000; fill-opacity:0.0; 
stroke:#840000; stroke-width:60; stroke-opacity:1; 
stroke-linecap:round; stroke-linejoin:round;">
<path d="M19880 26410
L19880 26100
L20070 26270
L20070 26190
L20090 26150
L20110 26120
L20160 26100
L20280 26100
L20330 26120
L20350 26150
L20380 26190
L20380 26340
L20350 26380
L20330 26410
" />
<path d="M19920 25900
L19900 25880
L19880 25830
L19880 25710
L19900 25670
L19920 25640
L19970 25620
L20020 25620
L20090 25640
L20380 25930
L20380 25620
" />
</g>
<g style="fill:#008484; fill-opacity:0.0; 
stroke:#008484; stroke-width:60; stroke-opacity:1; 
stroke-linecap:round; stroke-linejoin:round;">
<path d="M23230 32310
L23230 31910
" />
<path d="M23230 31970
L23260 31940
L23320 31910
L23400 31910
L23460 31940
L23490 32000
L23490 32310
" />
<path d="M23490 32000
L23520 31940
L23580 31910
L23660 31910
L23720 31940
L23750 32000
L23750 32310
" />
<path d="M24290 31910
L24290 32310
" />
<path d="M24030 31910
L24030 32230
L24060 32280
L24120 32310
L24200 32310
L24260 32280
L24290 32250
" />
<path d="M24520 32310
L24830 31910
" />
<path d="M24520 31910
L24830 32310
" />
</g>
<g style="fill:#008400; fill-opacity:0.0; 
stroke:#008400; stroke-width:60; stroke-opacity:1; 
stroke-linecap:round; stroke-linejoin:round;">
<path d="M36000 20000
L49000 20000
" />
<path d="M49000 20000
L49000 21000
" />
<path d="M36000 17000
L49000 17000
" />
<path d="M49000 17000
L49000 16000
" />
<path d="M58500 18500
L74000 18500
" />
<path d="M61500 18500
L61500 33000
" />
<path d="M61500 33000
L22000 33000
" />
<path d="M20500 25000
L20500 21500
" />
<path d="M20500 21500
L23000 21500
" />
<path d="M19000 33000
L8500 33000
" />
<path d="M14000 29000
L8500 29000
" />
<path d="M23000 20000
L8500 20000
" />
<path d="M23000 17000
L8500 17000
" />
<path d="M23000 15500
L8500 15500
" />
<path d="M8500 12000
L29500 12000
" />
<path d="M29500 25000
L8500 25000
" />
<path d="M53000 24500
L46500 24500
" />
<path d="M46500 24500
L46500 9000
" />
<path d="M46500 9000
L8500 9000
" />
<path d="M53000 12500
L53000 6500
" />
<path d="M53000 6500
L8500 6500
" />
</g>
<g style="fill:#008400; fill-opacity:0.0; 
stroke:#008400; stroke-width:0; stroke-opacity:1; 
stroke-linecap:round; stroke-linejoin:round;">
</g>
<g style="fill:#008400; fill-opacity:1.0; 
stroke:#008400; stroke-width:100; stroke-opacity:1; 
stroke-linecap:round; stroke-linejoin:round;">
<circle cx="61500" cy="18500" r="200" /> 
</g> 
</svg>
